<svg id="Слой_1" xmlns="http://www.w3.org/2000/svg" viewBox="0 0 24 24"><style>.st0{fill:#cdcccc}</style><title>CC</title><path class="st0" d="M12.1 12c-.1-1.9 1.3-3.6 3.2-3.7h.3c1.3-.1 2.5.6 3.2 1.7l-1.6.8c-.2-.6-.7-1-1.3-1-1.2 0-1.6.9-1.6 2.1s.5 2.1 1.6 2.1c.7 0 1.3-.4 1.5-1l1.5.8c-.6 1.2-1.8 1.9-3.2 1.9-1.9.1-3.5-1.3-3.6-3.2V12zm-3.3 3.7c1.3 0 2.5-.7 3.2-1.9l-1.5-.8c-.2.6-.8 1-1.5 1-1.1 0-1.6-.9-1.6-2.1S7.8 9.8 9 9.8c.6 0 1.1.4 1.3 1l1.6-.8c-.7-1.1-1.9-1.8-3.2-1.7-1.9 0-3.5 1.5-3.5 3.4v.3c-.2 1.9 1.2 3.5 3 3.7h.6zm-5.3 4.8C1.3 18.2 0 15.2 0 12s1.3-6.3 3.6-8.5C5.8 1.2 8.8 0 12 0s6.3 1.2 8.6 3.5C22.8 5.8 24 8.8 24 12c.1 3.2-1.2 6.2-3.4 8.4-2.3 2.3-5.4 3.6-8.6 3.6-3.2 0-6.2-1.3-8.5-3.5zM2.2 12c0 2.6 1.1 5.1 2.9 6.9 1.8 1.8 4.3 2.9 6.9 2.9 2.6 0 5.1-1.1 7-2.9 1.8-1.8 2.9-4.3 2.8-6.9 0-5.4-4.3-9.8-9.7-9.8H12c-2.6 0-5.1 1-6.9 2.8-1.9 1.9-2.9 4.4-2.9 7z"/></svg>