<svg version="1.2" baseProfile="tiny" xmlns="http://www.w3.org/2000/svg" viewBox="0 0 100 16"><path d="M99.9.4h-2.7c-.1 0-.2.1-.2.2v8.6c-.6.2-1.2.2-1.8.2-1.8 0-2.2-.5-2.2-2.9V.6c0-.1-.1-.2-.2-.2h-2.7c-.1 0-.2.1-.2.2v6.2c0 3.8 1.3 5.4 4.6 5.4 1.8 0 4-.5 5.2-1 .1 0 .1-.1.1-.2V.6c.2-.1.2-.2.1-.2zM34.3 15.7c-.1.1 0 .1 0 .2.1.1.1.1.2.1h2.9c.1 0 .1-.1.2-.1.5-1 1.2-2.3 1.7-3.7 1.7-4.1 3.2-8 4.2-11.5 0-.1 0-.1-.1-.2h-2.8c-.1 0-.2.1-.2.1-.4 1.7-1.3 4.6-2.5 7.5L35.2.4c0-.1-.1-.1-.2-.1h-2.7c-.1 0-.1.1-.2.1-.1.1-.1.1 0 .2l4.2 11.3c-.4.9-.8 1.6-1.2 2.3-.3.5-.5 1-.8 1.5zm35.1.1c-.1.1 0 .1 0 .2.1.1.1.1.2.1h2.9c.1 0 .1-.1.2-.1.5-1 1.2-2.3 1.7-3.7 1.7-4.1 3.2-8 4.2-11.5 0-.2 0-.3-.1-.3h-2.7c-.1 0-.2.1-.2.1-.4 1.7-1.3 4.6-2.5 7.5L70.4.5c0-.1-.1-.1-.2-.1h-2.7c-.1 0-.1.1-.2.1-.1.1-.1.1 0 .2L71.4 12c-.4.9-.8 1.5-1.2 2.3-.3.5-.5 1-.8 1.5zm13.9-3.9c.1 0 .2-.1.2-.2V3.1h4.2c.1 0 .2-.1.2-.1.3-.7.6-1.5.9-2.3V.5c-.3 0-.3-.1-.3-.1h-7.9c-.1 0-.2.1-.2.2v11.1c0 .1.1.2.2.2h2.7zM50 2.7c.7 0 1.4.1 2.2.4.1 0 .2 0 .2-.1.3-.6.7-1.3 1.1-2.2V.6c0-.1-.1-.1-.1-.1-1.2-.3-2.5-.5-3.6-.5-3.8 0-5.6 1.8-5.6 6 0 4.3 1.7 6.1 5.6 6.1.9 0 2.9-.2 3.8-.6.1-.1.1-.1.1-.2.1 0-.7-2.2-.7-2.2s0-.1-.1-.1h-.2c-.6.2-1.8.5-2.7.5-1.8 0-2.7-.5-2.7-3.4 0-2.3.3-3.4 2.7-3.4zm12.8 9.1h2.7c.1 0 .2-.1.2-.2V.6c-.2-.1-.3-.2-.4-.2h-8.2c-.1 0-.1.1-.1.2-.2 3.7-.9 7.8-1.9 11v.1c.1.1.1.1.2.1h2.8c.1 0 .2-.1.2-.1.7-2.6 1.4-5.9 1.6-8.7h2.7v8.6c0 .1.1.2.2.2z" fill="#EE3F58"/><path fill="none" d="M16.6 6.1c0-3.2-.7-3.5-2.4-3.5s-2.3.3-2.3 3.5c0 3 .5 3.5 2.3 3.5s2.4-.5 2.4-3.5z"/><path fill="#0065B1" d="M8.3.6L8.1.4H.2C.1.4 0 .5 0 .6v11.1c0 .1.1.2.2.2h2.7c.1 0 .2-.1.2-.2V3.1h4.2c-.1 0 0-.1 0-.1.3-.8.7-1.6 1-2.4zM30.2 9H30c-.6.2-1.8.5-2.7.5-1.8 0-2.7-.5-2.7-3.4 0-2.3.3-3.4 2.7-3.4.7 0 1.4.1 2.2.4.1 0 .2 0 .2-.1.3-.6.7-1.3 1.1-2.2V.6c0-.1-.1-.1-.1-.1-1.1-.3-2.4-.5-3.5-.5-3.9 0-5.6 1.8-5.6 6 0 4.3 1.7 6.1 5.6 6.1.9 0 2.9-.2 3.8-.6.1-.1.1-.1.1-.2 0 .1-.8-2.2-.9-2.3.1 0 0 0 0 0zM19.6 6.1c0-4.3-1.5-6-5.4-6-3.8 0-5.4 1.6-5.4 6s1.5 6.1 5.4 6.1c3.9 0 5.4-1.7 5.4-6.1zm-7.7 0c0-3.2.6-3.5 2.3-3.5s2.4.3 2.4 3.5c0 3-.6 3.5-2.4 3.5s-2.3-.5-2.3-3.5z"/></svg>