<svg id="Слой_1" xmlns="http://www.w3.org/2000/svg" width="42" height="50.4" viewBox="0 0 42 50.4"><style>.st0{fill:#deca41}.st1{fill:#d7c125}.st2{fill:#f0e8b3}.st3{fill:#e7d572}.st4{fill:#97b3dd}.st5{fill:#6797ce}.st6{fill:#3581bf}.st7{fill:#216cb4}.st8{fill:#249842}.st9{fill:#28a85e}.st10{fill:#5eb980}.st11{fill:#93cba2}</style><path class="st0" d="M21 5.9c-4.3 0-8.3 1.8-11.1 4.6-1.2 1.2-2.1 2.4-2.8 3.9-1.5-.2-2.9-.3-4.4-.3 1-2.4 2.5-4.7 4.3-6.5 3.5-3.6 8.5-5.9 14-5.9s10.5 2.2 14.1 5.9c1.9 1.9 3.4 4.1 4.3 6.5-1.5 0-3 .1-4.4.3-.7-1.5-1.7-2.7-2.8-3.9-2.9-2.8-6.8-4.6-11.2-4.6z"/><path class="st1" d="M21 8.4c-4.8 0-9 2.6-11.3 6.5 2.1.4 4.1 1.2 6.1 1.9 1.9.7 3.6 1.7 5.3 2.7 1.7-1 3.5-2 5.3-2.7 2-.8 4-1.5 6.1-1.9C30.1 11 25.9 8.4 21 8.4z"/><path class="st2" d="M1 .1H0v1L.2.9 1 .1zM42 1V0h-1l.8.8.2.2z"/><path class="st3" d="M14.5.1H5.3C4.1.9 3.2 1.8 2.1 2.7c-.7.7-1.4 1.4-2 2.2l.2 7.7C1.5 10 3 7.7 5 5.7c2.7-2.5 5.9-4.5 9.5-5.6zm27.2 12.5l.2-7.7c-.6-.7-1.3-1.5-2-2.2-.9-.9-2-1.9-3.2-2.6h-9.2c3.6 1 6.8 3 9.3 5.7 2.2 1.9 3.8 4.3 4.9 6.8z"/><path class="st4" d="M7.1 44.4l4 1.7c.9-6.4 3.9-12.3 8.3-16.6 5.4-5.4 12.7-8.6 20.8-8.6h1.4l.1-4.2h-1.5c-9.2 0-17.6 3.8-23.7 9.9-4.8 4.7-8.2 10.9-9.4 17.8z"/><path class="st5" d="M13.5 47.3l4.1 1.8c.3-5.7 2.7-10.8 6.6-14.7 4.1-4.1 9.8-6.6 16-6.6h1.2l.1-4.2h-1.3c-7.4 0-14.1 3-18.9 7.9-4.2 4.1-7 9.6-7.8 15.8z"/><path class="st6" d="M20.3 50.1l.8.3 3.5-1.5c.3-3.8 2-7.2 4.5-9.8 2.8-2.8 6.8-4.6 11.1-4.6h1l.1-4.2h-1.2c-5.5 0-10.5 2.2-14.1 5.9-3.5 3.6-5.7 8.5-5.7 13.9z"/><path class="st7" d="M27.2 47.8l13.9-6 .1-4.7h-.9c-6.6 0-11.9 4.6-13.1 10.7z"/><path class="st8" d="M.9 37l.1 4.8 3.6 1.6c.4-2 .9-3.9 1.6-5.7-1.4-.4-2.8-.7-4.3-.7h-1z"/><path class="st9" d="M.8 30.2l.1 4.2h1c1.9 0 3.7.3 5.3.9.6-1.3 1.3-2.5 2-3.8-2.2-.7-4.7-1.3-7.2-1.3H.8z"/><path class="st10" d="M.6 23.4l.1 4.2h1.2c3.1 0 6.1.6 8.7 1.8.8-1.2 1.8-2.3 2.7-3.4-3.4-1.6-7.3-2.5-11.4-2.5-.4-.1-.9-.1-1.3-.1z"/><path class="st11" d="M.4 16.6l.1 4.2h1.4c4.8 0 9.3 1.2 13.4 3.3 1.1-1.1 2.2-2 3.5-2.9-4.9-2.8-10.7-4.5-16.9-4.5-.4-.1-1-.1-1.5-.1z"/></svg>