<svg id="Слой_1" xmlns="http://www.w3.org/2000/svg" viewBox="0 0 44.6 49"><style>.st0{fill:none;stroke:#d3d2d2;stroke-miterlimit:10}</style><path class="st0" d="M43.7 33.1c-.2 2.1-1.9 5-3.5 6.3 0 0-3.1 2.4-7 4.6-3.8 2.3-7.4 3.9-7.4 3.9-.9.4-2.1.6-3.5.6-1.3 0-2.6-.2-3.5-.6 0 0-3.5-1.6-7.4-3.9-3.8-2.3-6.9-4.6-7-4.6-1.6-1.2-3.3-4.2-3.5-6.3 0 0-.4-4-.4-8.6s.4-8.5.4-8.6c.2-2.1 1.9-5 3.5-6.3 0 0 3.1-2.3 7-4.6 3.8-2.3 7.4-3.9 7.4-3.9.9-.4 2.1-.6 3.5-.6 1.3 0 2.6.2 3.5.6 0 0 3.5 1.6 7.4 3.9 3.8 2.3 6.9 4.6 7 4.6 1.6 1.2 3.3 4.2 3.5 6.3 0 0 .4 4 .4 8.6s-.4 8.5-.4 8.6z"/><path d="M21 28.1l3.6-3.6-3.6-3.6-1 1.1 2.5 2.5L20 27"/></svg>