<svg version="1.2" baseProfile="tiny" xmlns="http://www.w3.org/2000/svg" viewBox="0 0 37 31"><path fill="#FFF" d="M0 27.7c3.4 2.2 7.4 3.5 11.8 3.5 14.1 0 21.9-12 21.9-22.4v-1c1.5-1.1 2.8-2.5 3.8-4.1-1.4.6-2.9 1.1-4.4 1.2 1.6-1 2.8-2.5 3.4-4.4-1.5.9-3.1 1.6-4.9 1.9C30.1 1 28.1 0 25.9 0c-4.2 0-7.7 3.5-7.7 7.9 0 .6.1 1.2.2 1.8-6.4-.3-12-3.5-15.8-8.2-.7 1.2-1 2.5-1 4 0 2.7 1.4 5.1 3.4 6.6-1.3 0-2.4-.4-3.5-1v.1c0 3.8 2.6 7 6.2 7.7-.6.2-1.3.3-2 .3-.5 0-1 0-1.4-.1 1 3.1 3.8 5.4 7.2 5.5C8.9 26.7 5.6 28 2 28c-.8-.2-1.4-.3-2-.3z"/></svg>